# xmcd CD database file
#
# Track frame offsets:
#	150
#	26195
#	47757
#	81637
#	105437
#	135912
#	157890
#	181410
#	212057
#	238120
#	262147
#
# Disc length: 3718 seconds
#
# Revision: 0
# Processed by: cddbd v1.5.2PL0 Copyright (c) Steve Scherf et al.
# Submitted via: CDex 1.70beta2
#
DISCID=960e840b
DTITLE=Jan Lundgren - A Touch Of You
DYEAR=1998
DGENRE=Jazz
TTITLE0=Blues For Raz
TTITLE1=Love You Madly
TTITLE2=Willow Weep For Me
TTITLE3=Cleopatra's Dream
TTITLE4=A Touch Of You
TTITLE5=Midnight Waltz
TTITLE6=The Time Is Now
TTITLE7=While My Lady Sleeps
TTITLE8=Tranquille
TTITLE9=Fingers
TTITLE10=Lotus Blossom
EXTD=YEAR: 1998
EXTT0=
EXTT1=
EXTT2=
EXTT3=
EXTT4=
EXTT5=
EXTT6=
EXTT7=
EXTT8=
EXTT9=
EXTT10=
PLAYORDER=
